<svg id="mug" xmlns="http://www.w3.org/2000/svg" viewBox="0 0 303.32 270"><defs><style>.cls-1{fill:#fff;stroke:#000;stroke-miterlimit:10;}</style></defs><title>mug</title><path class="cls-1" d="M578.65,225.92,577.5,182.5m3.6,136.34-1.53-58.14m2.69,102,1.24,46.81c1,10,41.67,23,98,23s93-12,94-26l6-224m-102-19c-56.33,0-102,8.51-102,19s45.67,19,102,19,102-8.51,102-19S735.83,163.5,679.5,163.5Z" transform="translate(-478.68 -163)"/><path class="cls-1" d="M584.5,361.5c-10-5-23,20-61,4-28.08-11.82-52-44-42-90,6.78-31.2,29.61-53.7,62-57,3.41-.35,23.59-2.06,41,11,4,3,6,6,6,11s1,10-1,15c-1,2.5-7,9-8,7-.45-.89-6.61-5.12-8-9-5-14-18-17-29-16-14.94,1.36-33.44,16.13-38,42-6,34,8.23,58.18,26,66,25,11,40-10.32,44-21,3-8,10-8,12-3,1,2.63,5.7,11.91,6,17C595.5,355.5,589.32,363.91,584.5,361.5Z" transform="translate(-478.68 -163)"/></svg>