<?xml version="1.0" encoding="utf-8"?>
<!-- Generator: Adobe Illustrator 14.0.0, SVG Export Plug-In . SVG Version: 6.00 Build 43363)  -->
<!DOCTYPE svg PUBLIC "-//W3C//DTD SVG 1.1//EN" "http://www.w3.org/Graphics/SVG/1.1/DTD/svg11.dtd">
<svg version="1.1" xmlns="http://www.w3.org/2000/svg" xmlns:xlink="http://www.w3.org/1999/xlink" x="0px" y="0px" width="121px"
	 height="104.929px" viewBox="0 0 121 104.929" enable-background="new 0 0 121 104.929" xml:space="preserve">
<g id="Layer_1">
	<path d="M53.722,24.718h56.613c2.104,0,3.811-1.706,3.811-3.811V11.38c0-2.104-1.706-3.81-3.811-3.81H53.722"/>
	<path d="M39.162,7.57H11.262c-2.105,0-3.811,1.706-3.811,3.81v9.527c0,2.105,1.705,3.811,3.811,3.811h27.899"/>
	<path d="M53.722,62.823h4.522l22.303-17.148h1.375l8.201,7.235L77.4,62.823h32.935c2.104,0,3.811-1.707,3.811-3.811v-9.525
		c0-2.105-1.706-3.812-3.811-3.812H81.922h-1.375H53.722"/>
	<line x1="39.162" y1="24.718" x2="39.162" y2="7.57"/>
	<line x1="53.722" y1="24.718" x2="53.722" y2="7.57"/>
	<path d="M39.162,45.675H11.262c-2.105,0-3.811,1.707-3.811,3.812v9.525c0,2.104,1.705,3.811,3.811,3.811h27.899V45.675z"/>
	<line x1="53.722" y1="45.675" x2="53.722" y2="62.823"/>
	<path d="M39.162,100.928V83.78H11.262c-2.105,0-3.811,1.706-3.811,3.812v9.525c0,2.104,1.705,3.812,3.811,3.812H39.162"/>
	<polygon points="64.642,83.78 53.722,83.78 53.722,100.928 75.27,100.928 	"/>
	<path d="M80.484,83.78h29.851c2.104,0,3.811,1.706,3.811,3.812v9.525c0,2.104-1.706,3.812-3.811,3.812H92.143L80.484,83.78z"/>
</g>
<g id="Layer_2">
	<g>
		<path fill="#FFFFFF" d="M60.092,76.44l-6.37,4.94v20.02h-14.56V0h14.56v66.3l27.56-21.19l8.841,7.8l-20.021,15.6l22.36,32.891
			h-16.9L60.092,76.44z"/>
	</g>
</g>
</svg>
