<svg id="catpaw" xmlns="http://www.w3.org/2000/svg" viewBox="0 0 116.48 469.96"><defs><style>.cls-1{fill:#606060;}</style></defs><title>catpaw</title><path d="M629,651c-11.51-12.83-17.68-31.23-16.56-50.76,2-35,16-36,19-42,6.45-12.9,21.18-25.13,49-20,38,7,38,21,42,32,2.48,6.84,11,12,3,44C721.86,628.55,715.09,641.39,706,651l1,356H625Z" transform="translate(-612.31 -537.04)"/><ellipse class="cls-1" cx="665.97" cy="610.55" rx="24.56" ry="27.23" transform="translate(-661.68 625.38) rotate(-80.16)"/><ellipse class="cls-1" cx="631" cy="580" rx="8" ry="7" transform="translate(-655.18 572.54) rotate(-80.75)"/><ellipse class="cls-1" cx="656.29" cy="561.77" rx="8.74" ry="6.43" transform="translate(-613.1 585.57) rotate(-81.04)"/><ellipse class="cls-1" cx="687.5" cy="565.5" rx="8.5" ry="6.5" transform="translate(-577.81 633.46) rotate(-82.25)"/><ellipse class="cls-1" cx="712.62" cy="589.19" rx="8.2" ry="6.35" transform="translate(-686.45 537.93) rotate(-71.28)"/></svg>