<svg id="steam" xmlns="http://www.w3.org/2000/svg" viewBox="0 0 90.9 87.78"><defs><style>.cls-1{fill:#9e9e9e;}</style></defs><title>steam</title><path class="cls-1" d="M640.7,127.1a16.54,16.54,0,0,1,2.72,6.47,12.61,12.61,0,0,1,.2,3.7,8.87,8.87,0,0,1-1.16,3.67c-1.33,2.26-3.39,3.49-4.67,5.24a9.71,9.71,0,0,0-1.51,2.84,11.31,11.31,0,0,0-.54,3.15v1.6c0,.52.1,1,.13,1.56,0,.26,0,.52.06.76l.12.73.1.72c.05.24.13.45.19.68l.19.66.29.6a6,6,0,0,0,.65,1.15c.24.36.55.72.84,1.09l1,1.17a17.61,17.61,0,0,1,2.18,2.92,8.63,8.63,0,0,1,.83,1.83,8.1,8.1,0,0,1,.28,1l.14,1a12.69,12.69,0,0,1-1.44,7,.21.21,0,0,1-.39-.07h0a24.73,24.73,0,0,0-1.23-6.24l-.27-.64c-.1-.21-.25-.39-.36-.59a7.35,7.35,0,0,0-.78-1.1c-.6-.71-1.29-1.38-2.11-2.21-.39-.39-.8-.88-1.2-1.34a12.56,12.56,0,0,1-1.08-1.64,10.67,10.67,0,0,1-.81-1.87c-.1-.32-.2-.64-.29-1l-.15-1a14.48,14.48,0,0,1,1-7.25,41.17,41.17,0,0,1,3.12-6.27,26.24,26.24,0,0,0,2.7-5.91c1.28-3.48.81-7.66.9-12.34a.22.22,0,0,1,.21-.21A.19.19,0,0,1,640.7,127.1Z" transform="translate(-632.52 -99.08)"/><path class="cls-1" d="M674.91,186.77a15.24,15.24,0,0,1-2.45-5.83,10.88,10.88,0,0,1,.87-6.69A23.39,23.39,0,0,1,677,169c1.32-1.55,2.62-3,3.75-4.45,4.91-5.6,5.13-15.45.72-21.81-2.16-3.25-5.12-5.71-8-8.84a17.87,17.87,0,0,1-3.72-5.64,12.81,12.81,0,0,1-.59-7,18.52,18.52,0,0,1,2.3-6.31,23.34,23.34,0,0,1,1.88-2.69c.67-.83,1.36-1.58,2-2.32a13.37,13.37,0,0,0,2.78-4.74,21.92,21.92,0,0,0,.71-5.83h0a.21.21,0,0,1,.21-.2.21.21,0,0,1,.18.14,16.13,16.13,0,0,1,.91,6.27,13.68,13.68,0,0,1-2.23,6.2,47.58,47.58,0,0,0-3,5,18.08,18.08,0,0,0-1.5,5.17c-.08.45-.1.86-.15,1.29s0,.84,0,1.25a9.4,9.4,0,0,0,.44,2.4,15.29,15.29,0,0,0,2.68,4.62c1.18,1.52,2.56,3,3.8,4.74a28.34,28.34,0,0,1,3.2,5.49,33.33,33.33,0,0,1,2.49,12.21,31.94,31.94,0,0,1-.2,6.31,17.55,17.55,0,0,1-2.15,6.16,27.54,27.54,0,0,1-3.88,5,31.24,31.24,0,0,0-3.62,4.37,10,10,0,0,0-1.49,5.07,24.56,24.56,0,0,0,.7,5.84.2.2,0,0,1-.37.16Z" transform="translate(-632.52 -99.08)"/><path class="cls-1" d="M715.55,115.17a64.24,64.24,0,0,0,.68,7l.41,1.54c.15.51.38,1,.54,1.48s.46.95.69,1.44.49,1,.76,1.5a55.82,55.82,0,0,1,2.88,6.89,40.19,40.19,0,0,1,1.71,7.36l.15,1.9c0,.32,0,.64.06,1l0,1a16.94,16.94,0,0,1-.66,3.89,17.76,17.76,0,0,1-3.86,6.91c-1.67,1.88-3.12,3.25-3.94,5.15a22.78,22.78,0,0,0-1.32,6.73h0a.2.2,0,0,1-.22.19.2.2,0,0,1-.17-.12,13.05,13.05,0,0,1-1.32-7.65,6,6,0,0,1,.24-1,7.07,7.07,0,0,1,.31-1,14.25,14.25,0,0,1,.92-1.88,26.82,26.82,0,0,1,2.21-3.11,23.38,23.38,0,0,0,3.59-5.44,26.88,26.88,0,0,0,1.05-3.14c.36-1.07.54-2.22.82-3.37a11.36,11.36,0,0,0-.72-6.84c-1-2.15-2.89-3.6-4.49-5.56a12.18,12.18,0,0,1-2.69-7.46c0-.67.08-1.33.13-2a17.42,17.42,0,0,1,.43-1.9c.09-.3.14-.62.26-.92l.37-.88c.26-.58.53-1.15.84-1.7a.21.21,0,0,1,.29-.08.2.2,0,0,1,.1.16Z" transform="translate(-632.52 -99.08)"/></svg>